<svg width="51" height="51" viewBox="0 0 51 51" fill="none" xmlns="http://www.w3.org/2000/svg">
<g clip-path="url(#clip0_432_118)">
<path d="M23.9696 0.220049C37.7603 -0.453956 49.4862 10.1792 50.1602 23.9698C50.8342 37.7605 40.2011 49.4864 26.4104 50.1604C12.6198 50.8344 0.89381 40.2012 0.219805 26.4106C-0.454201 12.62 10.179 0.894054 23.9696 0.220049Z" fill="#3D3D3D"/>
<g clip-path="url(#clip1_432_118)">
<path d="M14.555 17.9625C14.2394 20.1303 13.3286 22.165 13.1305 24.3553C13.0561 25.1779 12.8164 26.006 12.7234 26.8373C12.6182 27.7778 12.1601 28.626 11.9642 29.5476C11.7671 30.4749 11.812 31.4638 11.6668 32.4053C11.4981 33.4986 11.4767 33.7331 12.7078 33.8708C14.5825 34.0806 16.4905 34.0035 18.3746 34.0035C21.3935 34.0035 24.2911 33.9976 27.2507 33.37C28.1357 33.1824 27.6343 30.4147 27.6812 29.7612C27.7841 28.3247 28.6395 27.0743 28.8396 25.6515C29.0116 24.4285 29.0437 23.1771 29.137 21.9469C29.185 21.3147 29.2007 20.6758 29.2857 20.0468C29.3168 19.8174 29.5567 19.2605 29.4344 19.0304C29.2613 18.7044 28.4256 18.7036 28.1743 18.6842C26.7028 18.5708 25.2186 18.5895 23.7441 18.5222C21.865 18.4364 20.0768 17.9909 18.2338 17.6826C17.1656 17.5039 16.5136 17.9325 15.5099 17.9625C15.1579 17.973 14.6526 18.0543 14.4141 17.8299" stroke="white" stroke-width="2.5" stroke-linecap="round"/>
</g>
<g clip-path="url(#clip2_432_118)">
<path d="M21.9512 25.1282C29.3792 26.1211 29.5017 24.6856 37.7012 25.6087" stroke="white" stroke-width="2.5" stroke-linecap="round"/>
<g clip-path="url(#clip3_432_118)">
<path d="M33.0898 28.8455C36.1677 27.9642 35.6475 27.4599 38.9771 26.4287" stroke="white" stroke-width="2.5" stroke-linecap="round"/>
</g>
</g>
<g clip-path="url(#clip4_432_118)">
<path d="M35.0977 21.6409C37.0977 24.1409 37.3623 23.4665 39.5977 26.1409" stroke="white" stroke-width="2.5" stroke-linecap="round"/>
</g>
</g>
<defs>
<clipPath id="clip0_432_118">
<rect width="51" height="51" fill="white" transform="translate(0 -0.000244141)"/>
</clipPath>
<clipPath id="clip1_432_118">
<rect width="21" height="19" fill="white" transform="translate(10 15.9998)"/>
</clipPath>
<clipPath id="clip2_432_118">
<rect width="24.1315" height="14.2267" fill="white" transform="translate(15 25.6157) rotate(-28.774)"/>
</clipPath>
<clipPath id="clip3_432_118">
<rect width="8" height="8" fill="white" transform="translate(30.7666 30.1479) rotate(-67.3184)"/>
</clipPath>
<clipPath id="clip4_432_118">
<rect width="8" height="8" fill="white" transform="translate(33 19.9998)"/>
</clipPath>
</defs>
</svg>
